<svg width="16" height="16" viewBox="0 0 16 16"  xmlns="http://www.w3.org/2000/svg">
<path d="M1.9166 7.75691C5.49573 6.19754 7.88238 5.16951 9.07654 4.67281C12.4861 3.25465 13.1946 3.0083 13.6564 3.00008C13.758 2.99838 13.985 3.02355 14.1321 3.14291C14.2563 3.24369 14.2905 3.37984 14.3069 3.4754C14.3232 3.57095 14.3436 3.78863 14.3274 3.95872C14.1426 5.90008 13.3432 10.6112 12.9364 12.7856C12.7643 13.7056 12.4254 14.0141 12.0974 14.0443C11.3844 14.1099 10.843 13.5731 10.1524 13.1205C9.07187 12.4121 8.46141 11.9712 7.41252 11.28C6.20035 10.4812 6.98615 10.0422 7.67697 9.32466C7.85775 9.13688 10.9991 6.27955 11.0599 6.02034C11.0675 5.98793 11.0746 5.86709 11.0028 5.80328C10.931 5.73947 10.8251 5.76129 10.7486 5.77865C10.6402 5.80325 8.914 6.94422 5.56991 9.20158C5.07992 9.53804 4.63611 9.70198 4.23847 9.69339C3.8001 9.68392 2.95685 9.44553 2.32998 9.24176C1.56111 8.99183 0.950018 8.85969 1.00323 8.43522C1.03095 8.21414 1.3354 7.98803 1.9166 7.75691Z" />
</svg>
