<svg width="16" height="16" viewBox="0 0 16 16" xmlns="http://www.w3.org/2000/svg">
<path fill-rule="evenodd" clip-rule="evenodd" d="M13.4 3.0125C12.0875 1.7 10.3375 1 8.5 1C4.65 1 1.5 4.15 1.5 8C1.5 9.225 1.85001 10.45 2.46251 11.5L1.5 15L5.17501 14.0375C6.22501 14.5625 7.3625 14.9125 8.5 14.9125C12.35 14.9125 15.5 11.7625 15.5 7.9125C15.5 6.075 14.7125 4.325 13.4 3.0125ZM11.65 9.4C11.475 9.3125 10.6 8.875 10.425 8.875C10.25 8.7875 10.1625 8.7875 10.075 8.9625C9.98749 9.1375 9.63751 9.4875 9.55001 9.6625C9.46251 9.75 9.37499 9.75 9.19999 9.75C9.02499 9.6625 8.50001 9.4875 7.80001 8.875C7.27501 8.4375 6.92501 7.825 6.83751 7.65C6.75001 7.475 6.83751 7.3875 6.92501 7.3C7.01251 7.2125 7.1 7.125 7.1875 7.0375C7.275 6.95 7.27501 6.8625 7.36251 6.775C7.45001 6.6875 7.36251 6.6 7.36251 6.5125C7.36251 6.425 7.01251 5.55 6.83751 5.2C6.75001 4.9375 6.57501 4.9375 6.48751 4.9375C6.40001 4.9375 6.31249 4.9375 6.13749 4.9375C6.04999 4.9375 5.87499 4.9375 5.69999 5.1125C5.52499 5.2875 5.08751 5.725 5.08751 6.6C5.08751 7.475 5.69999 8.2625 5.78749 8.4375C5.87499 8.525 7.01249 10.3625 8.76249 11.0625C10.25 11.675 10.5125 11.5 10.8625 11.5C11.2125 11.5 11.9125 11.0625 12 10.7125C12.175 10.275 12.175 9.925 12.0875 9.925C12 9.4875 11.825 9.4875 11.65 9.4Z" />
</svg>
